<?xml version="1.0" standalone="no"?>
<!DOCTYPE svg PUBLIC "-//W3C//DTD SVG 20010904//EN"
 "http://www.w3.org/TR/2001/REC-SVG-20010904/DTD/svg10.dtd">
<svg version="1.0" xmlns="http://www.w3.org/2000/svg"
 width="1280.000000pt" height="1280.000000pt" viewBox="0 0 1280.000000 1280.000000"
 preserveAspectRatio="xMidYMid meet">
<metadata>
Created by potrace 1.15, written by Peter Selinger 2001-2017
</metadata>
<g transform="translate(0.000000,1280.000000) scale(0.100000,-0.100000)"
fill="#000000" stroke="none">
<path d="M2894 12722 c-19 -13 -244 -352 -244 -368 0 -8 -17 -49 -39 -92 -116
-231 -234 -671 -262 -976 -15 -159 -7 -520 16 -701 67 -549 232 -1142 452
-1619 31 -66 103 -210 160 -320 58 -111 139 -265 180 -343 41 -79 72 -143 69
-143 -2 0 -56 58 -119 128 -121 135 -186 188 -280 226 -57 23 -57 23 -109 4
-43 -15 -77 -18 -176 -16 -100 2 -125 -1 -132 -12 -4 -8 -15 -50 -24 -92 -18
-86 -22 -340 -7 -381 18 -45 197 -129 379 -176 124 -32 288 -89 356 -123 70
-35 138 -79 132 -85 -2 -2 -74 16 -161 41 -217 63 -331 86 -465 92 -183 10
-299 -27 -392 -123 -59 -61 -99 -146 -138 -298 -44 -173 -82 -242 -157 -283
-24 -14 -11 -48 65 -163 165 -250 357 -429 510 -476 31 -9 58 -17 59 -18 2 -1
-6 -23 -16 -51 -49 -129 -46 -283 8 -469 54 -184 65 -239 67 -327 1 -51 6 -93
13 -102 7 -8 34 -19 60 -26 102 -24 249 25 535 177 l178 96 72 -18 c61 -15 91
-16 216 -9 l145 9 37 75 c92 186 238 736 238 897 0 46 8 54 27 25 6 -11 146
-193 311 -406 359 -462 330 -390 281 -722 -33 -221 -40 -358 -28 -584 l4 -85
42 -3 41 -3 15 48 c32 97 38 132 57 308 14 131 28 206 50 275 16 52 33 100 37
107 9 13 630 -927 751 -1136 169 -291 364 -717 631 -1376 110 -273 128 -328
201 -604 45 -168 83 -308 86 -313 7 -11 50 -276 68 -423 45 -350 52 -688 23
-960 -10 -88 -26 -252 -37 -365 -10 -113 -20 -214 -22 -225 -5 -32 29 -29 107
9 215 106 313 346 360 876 8 96 20 202 25 235 6 33 12 143 14 245 4 181 12
255 42 375 16 64 224 545 368 855 228 487 467 865 738 1164 90 98 404 385 436
397 44 17 157 9 302 -21 170 -36 241 -45 330 -44 100 1 135 11 150 40 20 36 8
40 -118 46 -75 4 -137 14 -206 34 l-100 28 70 12 c96 16 153 40 317 132 78 43
168 89 199 102 63 26 73 39 53 67 -11 14 -27 18 -75 18 l-62 0 129 125 c72 69
155 141 186 160 31 19 58 40 60 45 3 6 -7 39 -21 74 -18 46 -32 65 -50 72 -48
18 -152 -8 -336 -85 -60 -26 -111 -45 -112 -43 -2 2 15 70 37 152 24 91 36
152 30 158 -11 11 -37 -2 -129 -70 -142 -105 -273 -244 -562 -598 -63 -77
-166 -193 -230 -259 -115 -118 -292 -266 -297 -249 -2 5 12 91 32 192 37 191
45 322 24 410 -5 24 -46 143 -91 264 -62 165 -88 223 -105 234 -14 10 -28 12
-33 7 -5 -5 -12 -47 -17 -93 l-8 -84 -102 157 -103 157 -47 -7 c-60 -8 -67
-12 -97 -52 -22 -31 -23 -34 -9 -75 18 -51 34 -298 21 -312 -6 -7 -17 0 -32
18 -15 19 -31 27 -53 27 -18 0 -34 -4 -38 -9 -7 -13 56 -312 94 -443 42 -144
94 -265 152 -354 47 -71 70 -92 172 -154 27 -18 47 -37 47 -47 0 -31 -89 -178
-157 -260 -78 -93 -141 -181 -205 -283 -26 -41 -74 -111 -106 -155 -216 -292
-353 -545 -406 -749 -9 -33 -17 -60 -19 -62 -2 -2 -9 200 -15 449 -30 1095
-31 1113 -57 1277 -13 85 -29 209 -35 275 -6 66 -22 206 -35 310 -13 105 -31
271 -40 370 -11 117 -62 451 -146 955 -71 427 -129 779 -129 783 0 4 20 7 44
7 45 0 63 13 106 79 l16 23 84 -30 c310 -110 648 -272 837 -401 133 -91 575
-467 768 -654 71 -69 90 -68 83 2 -6 59 -61 145 -174 271 -41 47 -122 141
-178 210 -364 441 -701 731 -1031 886 -91 42 -219 86 -288 99 -33 6 -37 10
-31 29 17 53 24 96 24 162 0 39 3 112 6 162 8 106 2 102 119 77 99 -21 191
-69 336 -173 69 -50 157 -107 195 -128 38 -20 81 -48 95 -61 28 -26 59 -23 59
6 0 35 -60 139 -109 188 -28 29 -98 85 -154 125 l-101 73 59 8 c174 25 399
-54 805 -285 405 -230 533 -293 700 -348 108 -35 264 -62 346 -59 l63 2 113
-109 c149 -144 397 -308 441 -291 33 12 34 164 2 270 -23 77 -72 172 -145 280
-103 152 -143 202 -168 205 -12 2 -22 8 -22 14 0 7 23 8 73 2 167 -21 264 -3
354 66 63 47 112 145 158 315 20 72 41 144 46 160 10 27 7 36 -30 93 -67 101
-91 166 -135 374 -40 190 -86 252 -241 329 -71 35 -265 99 -301 99 -8 0 -14 3
-14 8 0 8 67 95 162 211 85 104 130 179 158 261 48 143 37 217 -65 425 -59
121 -89 210 -84 247 4 29 -3 36 -50 57 -213 91 -421 77 -845 -58 -87 -28 -164
-51 -169 -51 -6 0 9 17 34 37 115 98 257 234 284 273 26 38 29 51 30 119 0 64
-5 84 -29 131 -140 268 -777 571 -1173 558 l-104 -3 3 80 c1 44 -2 147 -6 229
l-9 148 -114 85 c-102 77 -122 88 -191 104 -42 11 -91 19 -108 19 -17 0 -52
11 -78 25 -26 14 -49 25 -51 25 -22 0 -115 -163 -115 -202 0 -9 -5 -20 -10
-23 -6 -4 -10 6 -10 24 0 16 -5 33 -10 36 -26 16 -238 -61 -340 -124 l-48 -29
-29 31 c-16 18 -42 52 -58 76 -33 49 -125 135 -170 158 -16 9 -66 42 -109 75
-44 32 -140 97 -213 144 l-133 86 -207 -82 c-290 -114 -405 -175 -497 -261
-73 -69 -136 -166 -136 -211 0 -10 -3 -18 -7 -18 -9 1 -63 42 -136 103 -24 21
-82 54 -128 74 -147 63 -263 56 -454 -30 -49 -22 -138 -56 -198 -77 -118 -40
-149 -63 -191 -139 -80 -148 -73 -365 20 -651 77 -236 207 -475 308 -568 54
-50 116 -70 438 -145 126 -28 228 -54 227 -57 0 -3 -35 -22 -77 -43 -299 -148
-476 -482 -408 -772 8 -33 13 -61 11 -63 -1 -2 -29 5 -61 14 -82 25 -192 23
-279 -4 -101 -31 -190 -87 -434 -271 -40 -31 -104 -77 -142 -103 l-69 -46 -30
51 c-56 96 -247 481 -313 628 -265 594 -429 1158 -477 1646 -14 144 -14 470 0
599 28 253 105 524 209 739 42 86 56 124 49 133 -12 13 -37 16 -54 4z m-194
-533 c-100 -384 -122 -753 -65 -1054 9 -44 34 -195 56 -335 47 -297 89 -508
125 -623 14 -45 70 -172 124 -282 55 -110 189 -384 298 -610 l199 -410 -31
-38 -30 -38 22 -110 c42 -203 128 -424 222 -566 52 -80 154 -173 305 -281 153
-110 243 -200 284 -283 17 -35 34 -78 37 -94 6 -31 5 -31 -75 -59 -44 -15 -85
-25 -91 -21 -15 9 -53 87 -100 205 -95 239 -147 301 -337 409 -97 55 -150 57
-189 7 l-28 -34 -32 41 c-64 81 -129 204 -229 436 -56 130 -128 288 -160 351
-234 466 -415 997 -499 1460 -45 253 -57 369 -63 626 -10 429 37 761 156 1109
40 116 122 317 128 311 2 -1 -10 -54 -27 -117z m3480 -155 c157 -84 170 -93
277 -199 103 -101 113 -115 129 -169 33 -117 3 -244 -92 -389 -67 -100 -279
-310 -469 -460 -161 -128 -184 -138 -156 -69 16 41 16 77 -4 237 -4 30 -11 58
-15 60 -5 3 -4 20 1 38 21 72 -1 194 -33 182 -16 -6 -22 -16 -83 -129 -38 -70
-45 -89 -35 -101 7 -8 16 -12 21 -9 13 7 11 -7 -5 -34 -11 -21 -14 -22 -25 -8
-8 9 -19 16 -26 16 -17 0 -33 -40 -31 -75 1 -16 -3 -41 -10 -55 -6 -14 -15
-44 -19 -68 l-7 -43 -25 33 c-81 110 -296 529 -274 536 12 4 15 44 4 55 -3 4
-12 2 -19 -3 -18 -15 -59 107 -42 127 8 10 6 19 -11 37 -20 21 -41 74 -41 103
0 7 9 13 19 13 29 0 34 16 16 51 -10 19 -22 29 -31 25 -17 -6 -17 -2 -4 45 12
44 88 122 162 166 29 18 139 65 243 106 105 40 215 87 245 103 l55 31 60 -32
c33 -18 134 -72 225 -121z m1170 -169 c123 -32 190 -65 250 -121 48 -45 51
-50 45 -84 -3 -20 1 -77 9 -126 9 -49 16 -108 16 -131 0 -23 -33 -174 -74
-335 -41 -161 -82 -338 -92 -393 -24 -140 -25 -347 -1 -442 13 -48 16 -77 9
-88 -7 -14 -21 4 -69 91 -71 128 -98 198 -108 277 -4 31 -12 57 -17 57 -18 0
-68 -31 -68 -42 0 -6 7 -85 15 -177 14 -151 18 -168 39 -186 23 -20 44 -95 26
-95 -14 0 -165 170 -168 191 -2 10 -9 19 -16 19 -18 0 -57 44 -121 139 -70
104 -100 170 -120 269 -19 89 -13 159 20 248 23 62 20 84 -12 84 -6 0 -29 11
-49 25 -20 14 -44 25 -54 25 -23 0 -55 -37 -88 -100 -15 -30 -32 -55 -38 -57
-14 -5 -34 71 -34 124 0 83 49 203 130 323 33 49 197 256 235 298 6 7 1 -19
-11 -58 -16 -48 -37 -87 -64 -117 -22 -25 -40 -52 -40 -59 0 -8 -5 -14 -12
-14 -17 0 -100 -94 -137 -155 -35 -57 -45 -110 -22 -110 21 0 69 64 94 126 13
30 29 55 37 57 20 4 40 32 40 54 0 11 7 18 20 18 11 0 26 12 34 28 8 15 33 45
55 66 41 40 68 96 56 116 -4 6 1 17 10 24 17 12 17 15 2 45 -16 33 -16 33 22
89 21 32 50 78 65 104 l27 47 35 -15 c19 -8 75 -25 124 -39z m-2460 -77 c161
-108 267 -277 536 -853 62 -132 111 -241 109 -243 -6 -6 -64 28 -127 74 -180
130 -347 224 -400 224 -10 0 -18 7 -18 15 0 17 -30 35 -61 35 -18 0 -20 -4
-14 -22 4 -13 8 -36 8 -51 0 -24 7 -32 43 -50 31 -15 44 -27 44 -42 0 -12 12
-37 26 -56 14 -19 35 -54 46 -77 21 -46 22 -46 91 -26 19 6 24 -12 5 -19 -22
-8 5 -40 53 -64 24 -12 54 -32 66 -44 12 -12 27 -19 35 -17 7 3 19 -1 26 -8
21 -22 -10 -29 -128 -28 -83 0 -126 6 -205 28 -121 34 -308 109 -509 205 -124
59 -152 69 -165 59 -9 -7 -31 -25 -49 -40 -38 -33 -48 -30 -124 36 -66 58
-133 147 -160 214 -19 49 -22 75 -22 182 0 105 5 148 32 264 17 77 35 143 40
148 4 4 111 55 237 112 l230 104 140 -5 140 -5 75 -50z m2060 -49 c0 -11 -57
-89 -126 -172 -124 -149 -154 -196 -154 -237 0 -12 -7 -34 -15 -50 -8 -16 -39
-119 -70 -229 -80 -296 -128 -394 -228 -474 -33 -27 -54 -33 -180 -54 -78 -12
-152 -23 -165 -23 -20 0 -22 2 -11 23 17 32 17 32 39 12 17 -15 22 -16 36 -4
9 8 27 12 40 11 12 -2 31 5 41 15 11 11 24 18 30 16 6 -2 18 3 26 12 9 8 24
15 34 15 43 0 63 12 63 38 0 20 3 23 12 14 20 -20 33 -14 51 26 9 20 30 45 47
55 34 21 37 33 13 59 -22 25 -35 23 -67 -11 -16 -17 -40 -31 -55 -33 -22 -3
-26 -8 -24 -32 2 -28 2 -28 -18 -10 -19 17 -22 17 -32 3 -17 -22 -54 -30 -68
-13 -14 17 -59 18 -112 3 -22 -6 -42 -7 -45 -4 -14 14 57 56 188 111 148 62
228 110 264 158 13 17 70 173 131 356 84 254 112 329 131 345 29 24 206 103
217 98 4 -2 7 -13 7 -24z m1017 -535 c325 -78 534 -145 684 -219 113 -55 166
-93 222 -155 56 -63 76 -121 78 -227 2 -75 0 -86 -27 -127 -38 -58 -131 -132
-239 -191 -88 -48 -304 -139 -312 -132 -4 4 118 58 182 80 17 6 42 22 56 36
15 14 41 36 58 49 17 13 31 30 31 38 0 8 8 14 18 14 10 0 34 14 52 30 18 17
44 30 56 30 25 0 58 44 50 66 -3 8 -15 14 -26 14 -26 0 -82 -28 -93 -46 -4 -8
-14 -14 -21 -14 -8 0 -43 -29 -77 -65 -35 -36 -70 -65 -77 -65 -7 0 -99 -41
-205 -91 -141 -67 -201 -101 -225 -128 -30 -32 -50 -41 -190 -82 -86 -26 -158
-45 -160 -44 -8 7 122 195 135 195 11 0 14 11 12 48 -1 26 1 54 4 62 30 67 45
130 33 139 -22 18 -280 -188 -348 -278 l-26 -34 -20 39 c-11 21 -25 63 -31 92
-12 55 -13 276 -2 326 l6 30 12 -27 c13 -29 43 -37 43 -12 0 8 5 23 11 33 7
12 7 25 0 45 -12 31 -31 35 -38 8 -7 -29 -35 -37 -28 -8 2 12 12 60 20 107 23
119 40 185 87 342 l40 137 37 9 c55 15 60 14 218 -24z m-1165 -266 c-7 -7 -12
-32 -12 -56 0 -49 -11 -75 -48 -114 -35 -38 -44 -35 -28 10 22 60 87 185 93
178 4 -4 1 -12 -5 -18z m-1057 3 c10 -17 -12 -21 -25 -6 -10 12 -10 15 3 15 9
0 18 -4 22 -9z m65 -11 c0 -5 -4 -10 -10 -10 -5 0 -10 5 -10 10 0 6 5 10 10
10 6 0 10 -4 10 -10z m780 -152 c-12 -18 -19 -25 -16 -15 3 11 9 30 12 44 5
16 10 21 17 14 6 -6 2 -21 -13 -43z m279 -233 c12 -44 42 -122 67 -174 41 -87
57 -129 33 -88 -26 45 -69 -2 -44 -50 8 -15 15 -33 15 -39 0 -5 19 -33 43 -62
46 -56 87 -118 87 -133 0 -5 5 -9 11 -9 5 0 8 -4 4 -10 -3 -5 3 -18 15 -30 11
-11 20 -22 20 -25 0 -3 0 -9 0 -15 0 -5 9 -10 20 -10 18 0 19 -3 10 -20 -15
-28 -5 -40 33 -40 21 0 36 -7 44 -19 6 -10 32 -27 57 -37 25 -11 46 -22 46
-26 0 -12 -6 -10 -93 33 -198 99 -393 282 -475 445 l-21 41 25 -5 c20 -4 24 0
24 21 0 14 -5 38 -12 54 -6 15 -10 34 -9 42 1 7 -7 36 -19 63 -17 39 -19 53
-9 64 9 11 8 15 -5 20 -9 3 -25 4 -36 1 -18 -5 -20 0 -20 44 0 37 4 49 15 49
8 0 21 12 29 28 8 15 36 56 62 92 l49 65 6 -95 c3 -52 16 -131 28 -175z
m-2399 171 c38 -19 129 -68 202 -109 73 -42 172 -91 221 -111 l87 -35 193 13
c105 7 193 12 195 11 2 -2 -21 -15 -50 -30 -29 -15 -63 -36 -76 -46 -18 -14
-28 -16 -40 -8 -24 15 -86 -2 -90 -25 -2 -10 4 -26 14 -37 23 -25 15 -24 -94
10 -74 23 -101 37 -143 75 -36 32 -68 51 -108 62 -31 9 -60 20 -66 24 -5 4
-86 22 -178 41 -167 34 -169 34 -182 65 -7 17 -18 35 -25 39 -28 17 -42 -62
-16 -85 8 -6 13 -17 10 -25 -3 -7 -1 -16 4 -19 5 -3 97 -23 203 -45 167 -34
202 -44 253 -75 33 -20 64 -36 69 -36 5 0 35 -13 67 -29 32 -16 136 -51 231
-76 96 -26 181 -51 189 -56 19 -12 15 -11 -255 52 -395 92 -617 159 -711 214
-53 31 -94 89 -100 142 -5 36 -3 40 53 85 32 26 61 47 66 48 4 0 39 -15 77
-34z m810 10 c0 -3 -4 -8 -10 -11 -5 -3 -10 -1 -10 4 0 6 5 11 10 11 6 0 10
-2 10 -4z m370 -84 c0 -4 -22 -24 -50 -45 -27 -20 -52 -48 -56 -62 -4 -18 -13
-25 -29 -25 -45 0 -35 19 42 79 76 60 93 69 93 53z m930 -62 c0 -22 -29 -76
-51 -97 -14 -12 -44 -29 -68 -38 -46 -16 -162 -19 -196 -5 -22 9 -22 9 55 30
55 15 204 86 221 106 13 16 39 19 39 4z m-720 -71 c0 -12 -17 -27 -50 -44 -27
-14 -52 -25 -55 -25 -8 0 55 93 69 102 14 9 36 -10 36 -33z m844 -60 c9 -76 2
-87 -13 -19 -13 62 -14 80 -2 80 4 0 12 -27 15 -61z m-1031 -36 c-7 -2 -21 -2
-30 0 -10 3 -4 5 12 5 17 0 24 -2 18 -5z m735 -23 c97 0 122 -3 122 -14 0 -17
-58 -40 -138 -56 -43 -8 -43 -7 -38 16 5 19 1 27 -19 36 -21 9 -28 9 -38 -4
-11 -13 -20 -12 -82 9 l-70 23 70 -5 c39 -3 125 -5 193 -5z m-791 -31 c6 -6
27 -11 47 -12 20 -1 36 -2 36 -3 0 -1 -45 -32 -101 -69 l-101 -68 -76 22
c-106 30 -162 52 -157 61 2 4 15 5 28 3 23 -5 174 32 252 61 50 18 58 19 72 5z
m1119 -34 c9 -37 0 -40 -13 -5 -6 17 -7 30 -2 30 5 0 11 -11 15 -25z m-88 -42
c11 -21 29 -67 41 -103 11 -36 30 -79 40 -96 10 -17 89 -88 174 -159 l156
-127 -30 -59 c-16 -33 -35 -59 -42 -59 -7 0 -53 9 -103 20 -49 11 -137 23
-196 27 -97 5 -114 4 -190 -20 -80 -25 -188 -85 -217 -121 -8 -9 -36 -35 -64
-59 l-50 -41 7 61 c9 85 -10 232 -45 338 -17 50 -64 155 -105 234 -51 99 -69
141 -57 136 10 -4 41 -17 68 -29 42 -17 70 -21 185 -21 121 0 144 3 220 28 47
15 105 41 130 57 25 16 48 29 52 29 4 1 16 -16 26 -36z m-774 -52 c9 -30 14
-57 11 -59 -2 -3 -21 8 -42 24 -36 27 -37 29 -15 32 22 3 23 7 17 40 -10 54
10 29 29 -37z m3577 35 c59 -9 128 -16 153 -16 l47 0 44 -92 c193 -408 126
-784 -182 -1031 -145 -116 -229 -159 -428 -222 -188 -59 -252 -93 -319 -167
-29 -32 -59 -58 -67 -58 -8 0 -22 13 -32 29 -16 28 -16 31 3 76 48 111 55 159
55 382 l0 211 50 21 c30 13 51 17 53 11 2 -6 17 -17 33 -26 27 -13 30 -13 36
2 4 11 -1 23 -14 34 -19 15 -11 20 206 114 165 72 229 96 241 89 8 -6 17 -28
20 -49 4 -31 9 -39 25 -39 13 0 20 7 21 20 1 11 6 32 12 47 13 32 5 61 -14 54
-8 -3 -14 -2 -14 2 0 4 40 25 88 46 112 50 159 80 167 106 8 27 -36 170 -53
170 -31 0 -93 45 -167 120 -82 84 -155 130 -207 130 -33 0 -36 10 -7 28 18 11
23 11 33 -3 19 -26 51 -15 49 17 -1 24 0 25 30 17 18 -4 80 -15 138 -23z
m-3797 -101 c164 -38 283 -95 358 -172 142 -145 128 -323 -59 -743 -42 -95
-78 -196 -104 -294 -40 -154 -76 -234 -118 -267 -23 -18 -25 -18 -43 -3 -10
10 -23 34 -28 56 -6 22 -17 38 -25 38 -18 0 -18 5 -5 30 8 15 6 22 -11 33 -14
10 -17 17 -9 22 12 7 5 55 -9 65 -14 9 -81 204 -81 234 0 23 -37 66 -57 66
-13 0 -14 -4 -32 -110 -10 -60 -10 -66 9 -79 20 -13 20 -13 0 -38 -11 -14 -17
-29 -14 -34 3 -5 -2 -9 -10 -9 -17 0 -32 -42 -21 -59 3 -6 0 -11 -9 -11 -8 0
-17 -14 -21 -32 -4 -18 -12 -40 -18 -50 -9 -14 -7 -22 11 -41 27 -28 28 -37 4
-37 -31 0 -43 -20 -27 -44 14 -21 13 -21 -25 -22 -46 -2 -130 -47 -137 -75 -7
-26 -33 -6 -33 25 0 13 -11 32 -25 44 -14 12 -25 27 -25 32 0 6 -6 10 -14 8
-8 -2 -29 17 -46 41 l-32 43 23 24 c18 20 20 26 9 39 -12 14 -15 14 -30 0 -9
-8 -19 -15 -23 -15 -14 0 -60 73 -61 97 -1 17 -10 32 -28 42 -55 32 -221 282
-277 415 -42 100 -54 166 -49 252 12 182 156 338 454 491 86 44 92 46 108 30
18 -18 46 -23 46 -8 0 4 44 -7 98 -25 58 -21 117 -34 146 -34 58 0 127 30 150
65 9 14 18 25 21 25 2 0 33 -7 69 -15z m3450 -5 c101 -22 202 -59 251 -93 91
-62 195 -196 181 -233 -11 -28 -86 -64 -206 -99 -69 -20 -201 -68 -294 -107
-536 -224 -767 -257 -994 -143 -79 41 -168 111 -228 184 -54 66 -50 82 19 74
29 -3 57 -10 64 -15 6 -5 28 -9 50 -9 21 1 47 1 58 1 62 -1 269 52 292 74 6 6
15 23 18 38 7 29 11 26 -69 43 -14 3 -31 -1 -38 -8 -17 -17 -96 -28 -104 -15
-4 5 -19 8 -34 4 -18 -3 -33 0 -40 9 -16 20 -69 19 -76 0 -8 -20 -14 -19 -53
15 l-35 29 65 30 c80 38 189 66 349 91 103 16 131 17 158 7 30 -10 36 -9 47 6
9 13 40 22 112 33 133 20 295 59 341 83 47 25 53 25 166 1z m-1936 -66 c2 -1
-4 -4 -12 -7 -8 -3 -16 2 -19 14 -5 17 -3 18 11 7 9 -7 18 -13 20 -14z m429
-84 c17 -15 50 -36 72 -46 23 -10 41 -21 41 -24 0 -4 -10 -15 -21 -26 -12 -10
-30 -37 -40 -59 -17 -38 -20 -40 -96 -57 -119 -26 -113 -29 -113 52 0 46 -7
88 -20 122 -11 29 -20 54 -20 56 0 1 22 2 49 2 31 0 53 5 61 15 14 17 36 8 87
-35z m-414 -307 c15 -3 26 -8 25 -12 -16 -32 -52 -81 -59 -81 -5 0 -22 8 -37
17 -15 9 -28 18 -30 19 -2 1 7 18 19 38 15 26 26 35 38 31 9 -4 29 -9 44 -12z
m319 -70 c42 -91 52 -105 75 -96 18 7 43 -15 43 -38 0 -14 7 -19 25 -19 16 0
25 -6 25 -15 0 -9 9 -15 23 -15 13 0 30 -11 41 -28 10 -16 35 -39 55 -52 20
-13 46 -33 59 -44 19 -17 25 -18 32 -7 9 16 3 41 -11 41 -5 0 -18 18 -29 39
-11 22 -33 47 -48 56 -16 10 -33 31 -38 48 -5 18 -19 37 -31 43 -17 8 -20 13
-11 22 11 11 -2 54 -33 115 -25 47 50 -19 246 -218 116 -117 230 -228 255
-247 62 -48 175 -112 235 -134 28 -9 54 -21 60 -26 16 -14 -285 -9 -389 7 -64
10 -119 25 -155 42 -83 42 -91 47 -91 59 0 6 -11 21 -24 33 -13 13 -27 34 -31
48 -19 77 -119 170 -170 157 -26 -6 -26 -5 -15 15 17 32 6 55 -19 41 -42 -22
-39 -26 -128 140 -32 59 -39 80 -32 98 16 43 39 25 81 -65z m-518 -37 c126
-47 231 -88 233 -90 12 -12 25 -169 25 -316 2 -385 -105 -612 -365 -774 -140
-87 -352 -156 -481 -156 -30 0 -126 9 -213 21 -87 11 -173 19 -190 17 -35 -4
-36 -4 -27 28 4 15 12 20 28 17 17 -4 25 1 28 15 3 12 16 22 29 24 16 2 24 10
24 23 0 10 10 29 23 42 12 12 22 27 22 33 0 5 11 10 25 10 14 0 33 9 42 20 12
13 24 18 40 14 17 -5 23 -2 23 10 0 9 6 13 15 10 9 -4 19 3 26 20 7 14 18 26
26 26 8 0 20 14 27 31 9 21 15 27 18 18 8 -21 37 9 40 41 3 24 1 25 -52 23
-32 -1 -98 -17 -157 -37 -56 -19 -104 -32 -107 -28 -3 3 -17 -4 -29 -16 -13
-12 -26 -19 -30 -16 -8 8 -120 -25 -132 -39 -5 -7 -20 -13 -32 -15 -17 -2 -23
2 -23 16 0 11 -7 22 -15 26 -8 3 -12 12 -9 20 3 8 0 17 -6 21 -7 4 0 20 19 44
37 46 106 190 201 416 119 284 187 388 313 479 143 102 191 118 332 111 71 -3
106 -13 309 -89z m381 39 c49 -50 70 -95 136 -297 63 -193 103 -271 173 -336
129 -119 286 -138 606 -73 80 16 172 32 204 36 50 7 60 11 77 39 10 17 19 38
19 48 0 32 -131 124 -290 203 -77 38 -220 126 -220 135 0 9 190 1 395 -16 105
-9 191 -17 191 -18 1 0 8 -67 14 -147 l13 -147 -48 -138 c-27 -77 -51 -142
-54 -146 -3 -3 -175 -13 -381 -22 -206 -9 -412 -19 -458 -22 -83 -6 -83 -6
-70 15 8 13 23 21 40 21 52 0 120 24 136 48 25 39 6 44 -139 39 -155 -5 -148
-3 -302 -62 -149 -57 -150 -57 -132 -5 8 22 19 66 24 98 12 64 17 649 7 660
-4 4 -20 12 -36 17 l-29 10 37 48 c20 26 40 47 44 47 4 0 23 -16 43 -35z m272
-332 c76 -53 135 -112 148 -150 7 -21 19 -38 27 -38 7 0 22 -13 33 -30 25 -36
69 -52 195 -70 l95 -13 -70 -1 c-156 -2 -275 33 -354 104 -23 21 -64 71 -91
112 -72 108 -65 142 17 86z m-3185 -62 c31 -11 77 -31 102 -46 95 -56 130 -99
285 -348 145 -234 153 -244 227 -302 71 -55 75 -60 51 -63 -15 -2 -61 12 -106
32 -87 40 -101 43 -101 21 0 -19 1 -19 -56 5 -50 22 -74 20 -74 -4 0 -25 -16
-27 -45 -4 -24 18 -29 19 -39 7 -6 -8 -21 -13 -33 -11 -13 2 -23 -1 -23 -7 0
-6 -15 -11 -34 -11 -71 0 -61 -63 12 -76 20 -4 51 -18 68 -31 21 -15 44 -23
72 -23 31 0 44 -5 52 -20 13 -24 56 -48 128 -70 29 -9 52 -21 50 -26 -2 -5 27
-12 64 -15 62 -5 88 -13 77 -23 -13 -11 -355 -189 -386 -200 -21 -8 -78 -34
-128 -59 -103 -51 -249 -110 -315 -128 -42 -11 -51 -9 -140 25 -223 86 -403
234 -529 433 -66 105 -129 289 -147 429 l-6 51 71 82 c125 142 366 314 513
367 129 47 282 53 390 15z m5255 -261 c78 -11 155 -29 179 -41 64 -31 139
-136 193 -269 78 -197 122 -465 101 -630 -24 -205 -91 -280 -267 -300 -74 -8
-77 -7 -95 16 -11 13 -24 24 -30 24 -29 0 -48 34 -48 85 0 29 -12 93 -26 141
-14 49 -29 107 -33 128 -5 35 -13 44 -61 73 -30 18 -60 43 -67 56 -12 24 -11
24 70 45 45 11 104 24 130 27 43 6 48 9 44 27 -3 11 1 31 9 43 26 40 3 45
-130 29 -66 -8 -123 -11 -127 -7 -4 4 -30 72 -58 150 -28 79 -57 156 -65 172
-14 27 -76 61 -111 61 -8 0 -19 9 -25 20 -9 17 -14 18 -31 9 -16 -8 -23 -7
-32 5 -11 15 -19 14 -86 -9 -93 -33 -105 -26 -14 8 37 14 75 28 84 32 12 4 18
-1 22 -16 6 -23 6 -23 27 -4 11 10 19 24 16 31 -2 6 18 22 45 35 28 12 78 42
112 65 60 40 63 41 99 28 21 -7 99 -22 175 -34z m-2142 -206 c-22 -7 -47 -13
-56 -13 -20 -1 -65 -49 -55 -58 4 -5 22 -13 39 -20 31 -11 30 -12 -28 -12 -34
-1 -65 -5 -70 -10 -6 -5 -20 -5 -34 0 -22 9 -23 10 -7 28 25 27 105 68 161 82
28 6 54 15 59 20 5 4 14 5 20 1 6 -3 -7 -12 -29 -18z m-2072 -9 c0 -6 -7 -11
-16 -13 -12 -3 -15 1 -11 13 7 17 25 17 27 0z m3855 -72 c32 -64 51 -132 77
-282 25 -139 27 -147 68 -198 195 -247 221 -362 113 -490 -35 -42 -58 -42 -78
1 -23 48 -87 96 -208 157 -223 112 -320 179 -320 224 0 18 -31 20 -48 3 -9 -9
-12 11 -12 93 0 116 -9 160 -43 211 -18 25 -21 38 -13 50 23 37 -47 88 -121
88 -44 0 -12 26 47 38 58 12 147 68 194 120 18 21 28 22 172 22 l154 0 18 -37z
m-808 -28 c7 -8 19 -15 26 -15 8 0 14 -7 14 -15 0 -10 10 -15 33 -15 39 0 73
-22 62 -39 -5 -9 -10 -10 -18 -2 -6 6 -19 11 -29 11 -13 0 -18 -8 -18 -31 0
-24 -4 -29 -17 -25 -10 3 -40 8 -68 11 -72 10 -82 13 -88 35 -6 24 -42 27 -55
4 -8 -15 -22 -15 -136 -5 -160 14 -365 14 -441 0 -53 -10 -60 -9 -72 8 -12 16
-11 20 6 34 16 13 61 17 248 23 125 4 278 13 338 20 155 19 200 19 215 1z
m-2770 -80 c0 -5 -7 -35 -15 -65 -8 -30 -15 -82 -15 -116 l0 -60 50 -14 c41
-11 50 -18 50 -36 0 -12 3 -29 6 -37 4 -11 -16 -20 -88 -37 -51 -12 -97 -26
-102 -30 -4 -5 -12 -29 -17 -54 -10 -54 -49 -118 -67 -111 -8 3 -24 5 -38 5
-19 0 -30 12 -59 69 -19 39 -31 72 -27 74 4 2 50 10 103 17 53 7 101 15 107
19 5 3 17 42 26 86 l16 79 -28 29 c-16 15 -59 39 -97 53 l-68 25 -68 -73 c-38
-40 -69 -80 -69 -88 0 -8 9 -35 20 -59 11 -24 20 -47 20 -51 0 -4 -21 -11 -47
-15 -26 -4 -61 -14 -77 -22 -31 -16 -31 -16 -62 40 -21 39 -14 51 51 88 30 17
55 33 55 35 0 2 -18 56 -40 120 -22 64 -40 120 -40 124 0 4 13 13 28 19 25 10
39 7 113 -24 46 -20 107 -39 136 -42 l52 -6 22 46 c21 44 25 46 68 49 46 3
101 -17 101 -37z m1770 36 l45 -7 -66 -12 c-61 -11 -156 -15 -116 -5 9 2 17
11 17 19 0 16 43 18 120 5z m1123 -86 c-3 -9 -8 -14 -10 -11 -3 3 -2 9 2 15 9
16 15 13 8 -4z m-1183 -69 c80 -20 179 -39 220 -42 68 -6 77 -4 94 14 12 14
17 30 14 47 l-5 25 216 0 c355 0 597 -34 763 -107 69 -31 73 -41 63 -193 l-7
-107 -67 -11 c-157 -26 -301 -35 -485 -29 -195 5 -319 22 -436 58 -134 41
-134 44 7 44 111 0 133 3 163 21 51 30 46 48 -15 51 -27 2 -70 6 -95 10 -40 7
-34 8 50 13 107 6 120 17 62 56 -61 41 -227 63 -482 64 -148 0 -406 -12 -535
-26 l-60 -6 60 40 c33 22 80 59 105 81 l45 42 90 -5 c53 -3 150 -20 235 -40z
m-4589 -106 c205 -124 481 -398 569 -564 27 -52 32 -77 44 -211 l4 -50 -28 33
c-15 19 -47 69 -71 113 -52 97 -126 170 -300 295 -154 111 -243 194 -306 287
-51 74 -93 148 -93 166 0 16 109 -26 181 -69z m-256 18 c34 -31 35 -33 14 -38
-15 -4 -23 -14 -25 -32 -1 -15 -12 -36 -24 -48 -28 -28 -23 -55 10 -55 18 0
26 6 28 22 2 12 19 38 37 58 l34 36 19 -38 c10 -21 34 -76 52 -122 38 -95 88
-164 154 -211 39 -29 44 -35 35 -53 -8 -15 -8 -22 2 -28 21 -13 49 -11 55 6 8
20 164 -59 224 -114 l45 -41 -66 35 c-70 37 -189 72 -349 100 -389 69 -488
182 -419 478 l21 90 59 -6 c49 -4 65 -11 94 -39z m2930 2 c4 -6 -5 -10 -20
-10 -15 0 -24 4 -20 10 3 6 12 10 20 10 8 0 17 -4 20 -10z m-67 -45 c-10 -23
-28 -34 -28 -18 0 7 31 43 36 43 2 0 -2 -11 -8 -25z m2037 -35 c-11 -5 -29 -9
-40 -9 l-20 0 20 9 c11 5 29 9 40 9 l20 0 -20 -9z m-1945 -14 c0 -2 -8 -10
-17 -17 -16 -13 -17 -12 -4 4 13 16 21 21 21 13z m1795 -17 c-22 -4 -63 -8
-91 -8 -48 -1 -83 -19 -67 -34 3 -4 -8 -7 -25 -7 -17 0 -38 -7 -47 -16 -20
-20 -33 -11 -15 11 19 22 -4 45 -49 47 -31 2 170 12 294 15 l40 1 -40 -9z
m320 -39 c38 -6 71 -13 74 -16 2 -2 -63 -4 -145 -3 l-149 0 55 18 c30 10 64
17 75 15 11 -2 51 -9 90 -14z m-820 -10 c-3 -5 -11 -10 -16 -10 -6 0 -7 5 -4
10 3 6 11 10 16 10 6 0 7 -4 4 -10z m174 -16 c2 -2 -10 -4 -27 -4 -16 0 -37
-2 -44 -5 -8 -3 -14 2 -15 14 -1 17 2 18 40 9 23 -5 43 -11 46 -14z m-469 -14
c185 -29 310 -93 355 -183 43 -88 33 -194 -46 -472 -39 -137 -43 -161 -45
-279 -1 -92 -6 -132 -15 -142 -18 -17 -168 -41 -340 -54 -149 -11 -297 -2
-408 26 -241 61 -388 220 -446 484 -18 84 -33 424 -19 432 5 3 21 8 37 12 23
5 27 3 27 -14 0 -11 8 -23 18 -26 9 -3 25 -10 35 -15 10 -5 22 -7 28 -3 6 3
17 -3 25 -14 11 -16 30 -23 74 -28 58 -6 59 -7 54 -33 -6 -31 17 -58 38 -45 7
5 21 7 32 5 10 -1 22 2 26 8 3 7 14 9 24 5 15 -6 15 -7 0 -18 -14 -11 -13 -15
11 -44 15 -18 32 -32 38 -32 6 0 21 -10 33 -21 25 -23 69 -20 46 3 -7 7 -12
25 -12 40 0 21 -6 29 -25 34 -14 3 -25 12 -25 19 0 7 -14 25 -32 40 -18 15
-32 37 -33 49 0 12 -9 25 -21 30 -11 5 -33 31 -48 58 -15 26 -35 49 -44 50 -9
1 -25 2 -35 2 -31 2 -36 26 -15 62 16 28 18 37 8 49 -15 18 -6 22 55 29 78 8
571 -3 645 -14z m970 -55 c25 -4 72 -15 105 -25 237 -75 390 -95 845 -110 300
-11 430 -25 545 -61 70 -21 174 -71 230 -108 53 -36 174 -164 224 -235 54 -79
127 -214 119 -221 -10 -10 -113 -25 -170 -25 -58 0 -58 0 -52 26 6 23 4 25
-22 22 -20 -2 -29 -8 -28 -20 2 -20 -3 -21 -70 -12 -28 4 -42 10 -35 14 18 12
6 33 -38 63 -49 34 -103 46 -103 23 0 -18 75 -76 98 -76 9 0 13 -3 10 -6 -3
-3 -44 5 -91 17 -78 21 -86 25 -89 48 -4 30 -36 41 -50 17 -5 -9 -14 -16 -20
-16 -9 0 -9 3 0 12 21 21 13 36 -35 63 -43 24 -49 25 -59 10 -7 -9 -15 -12
-18 -7 -3 5 3 17 14 27 25 23 25 42 0 50 -11 3 -20 10 -20 15 0 5 -14 22 -31
39 -17 17 -28 31 -24 31 12 0 -58 115 -102 168 -25 29 -53 52 -64 52 -27 0
-24 -15 16 -67 19 -25 35 -52 35 -59 0 -7 9 -18 19 -24 11 -5 22 -23 26 -40 4
-16 11 -30 16 -30 5 0 9 -5 9 -11 0 -7 16 -32 36 -55 25 -31 33 -50 29 -64 -3
-11 -9 -20 -13 -20 -11 1 -47 30 -37 30 5 0 -4 14 -20 30 -16 17 -34 30 -41
30 -7 0 -34 27 -61 59 -47 58 -66 71 -78 51 -11 -17 38 -101 76 -132 22 -17
37 -33 35 -35 -4 -4 -110 58 -137 79 -8 7 -19 29 -25 48 -11 40 -37 47 -42 12
-3 -19 -6 -21 -18 -11 -9 7 -14 32 -14 71 0 64 -12 98 -36 98 -8 0 -17 7 -20
15 -4 10 -20 15 -51 15 -40 0 -44 -2 -41 -21 2 -15 18 -28 48 -41 49 -20 53
-20 -57 -1 -36 6 -42 17 -17 27 20 8 15 60 -7 64 -18 3 -44 -52 -33 -70 4 -6
-1 -8 -12 -5 -11 3 -39 11 -63 17 -24 6 -55 16 -70 21 -24 10 -25 11 -8 21 13
7 22 7 30 -1 15 -15 47 -14 47 2 0 6 -9 23 -19 36 -17 23 -22 24 -54 14 -24
-7 -39 -7 -46 0 -5 5 -18 6 -28 2 -27 -12 -55 -9 -223 25 -194 39 -187 37
-193 60 -3 10 -33 38 -68 61 -52 33 -58 40 -34 36 17 -3 50 -9 75 -12z m-2370
-29 c-5 -14 -23 -44 -39 -67 -17 -23 -28 -46 -25 -51 3 -5 2 -17 -2 -26 -4 -9
-8 -57 -9 -105 -2 -71 -6 -90 -20 -101 -11 -8 -16 -20 -12 -29 3 -9 -1 -18 -9
-21 -9 -3 -14 -15 -12 -28 2 -17 -3 -24 -19 -26 -25 -4 -31 -30 -11 -50 9 -9
8 -12 -4 -12 -25 0 -33 -21 -14 -36 21 -15 46 -8 46 12 0 8 9 13 23 11 17 -2
23 4 25 26 2 19 11 31 28 37 22 9 23 13 19 62 -5 42 -3 50 7 40 18 -18 36 -15
43 7 3 11 21 25 40 31 38 12 44 30 20 50 -22 18 -11 25 35 21 34 -2 40 0 40
17 0 11 -7 25 -16 33 -14 11 -13 14 3 23 10 5 29 10 43 10 18 1 26 7 28 22 3
23 27 34 73 34 21 0 31 -10 53 -50 34 -63 52 -149 66 -325 18 -217 47 -338
105 -422 23 -34 23 -38 8 -67 -54 -108 -191 -225 -333 -286 -118 -52 -251 -84
-526 -130 -130 -22 -243 -40 -250 -40 -7 0 -18 19 -25 43 -6 23 -46 135 -89
248 -98 255 -128 359 -136 463 -11 146 29 263 127 370 108 118 232 186 406
221 85 17 122 30 157 54 31 21 53 30 66 26 13 -4 23 0 32 14 8 13 23 21 40 21
25 0 27 -2 18 -24z m2214 -193 c76 -38 160 -92 153 -99 -2 -2 -26 7 -53 20
-27 13 -125 58 -219 101 -93 43 -174 82 -180 87 -19 17 227 -73 299 -109z
m-3798 17 c135 -65 228 -182 331 -417 48 -112 60 -149 53 -163 -15 -29 -12
-70 5 -70 8 0 15 -6 15 -14 0 -8 3 -23 6 -33 4 -14 1 -13 -15 6 -23 25 -57 22
-47 -4 3 -8 1 -15 -4 -15 -14 0 -12 -34 2 -48 20 -20 44 -13 55 16 l11 27 1
-37 c1 -30 -2 -36 -14 -32 -23 9 -41 -11 -39 -43 1 -15 3 -34 3 -40 1 -7 8
-13 16 -13 8 0 15 -4 15 -9 0 -5 -8 -7 -19 -4 -10 3 -22 0 -25 -6 -8 -13 28
-51 48 -51 12 0 13 -7 5 -32 -5 -18 -12 -68 -15 -111 l-7 -78 -53 -44 c-64
-51 -130 -85 -183 -92 l-38 -5 -22 73 c-30 100 -50 148 -133 307 l-70 136 4
82 c4 74 9 92 57 191 l52 108 -21 49 c-62 145 -93 396 -49 396 6 0 40 -14 75
-30z m725 -192 c-16 -24 -33 -55 -37 -70 -3 -16 -9 -28 -13 -28 -3 0 -23 25
-43 55 -37 54 -37 55 -15 60 18 5 94 19 130 24 5 0 -5 -18 -22 -41z m-1268
-140 c37 -11 67 -23 67 -26 0 -3 -7 -13 -16 -23 -20 -22 -13 -34 27 -48 27 -9
32 -8 36 10 5 19 6 19 19 1 9 -13 21 -18 39 -15 18 4 25 1 25 -11 0 -9 11 -21
25 -26 22 -8 24 -13 15 -29 -14 -27 -13 -51 4 -51 7 0 19 -7 26 -15 10 -12 8
-20 -9 -41 -30 -38 -27 -48 14 -41 32 5 35 3 41 -21 3 -15 7 -33 10 -39 2 -9
-7 -13 -27 -13 -31 0 -89 -25 -89 -38 0 -4 16 -24 36 -44 25 -27 44 -38 64
-38 25 0 34 -10 74 -75 25 -42 46 -78 46 -81 0 -3 -7 -12 -15 -20 -21 -21 -19
-47 4 -68 22 -20 41 -14 41 12 1 14 5 12 21 -7 19 -23 19 -25 2 -43 -66 -73
-288 -148 -440 -148 -63 0 -73 -3 -137 -45 -208 -135 -411 -138 -588 -8 -100
74 -200 183 -321 349 l-37 52 26 58 c14 32 48 121 76 199 61 171 106 259 160
313 48 49 46 48 213 82 l130 26 185 -33 c102 -19 215 -43 253 -55z m6626 -62
c79 -51 148 -155 190 -289 23 -77 55 -236 48 -244 -5 -5 -63 23 -134 64 -34
20 -40 27 -30 38 10 10 19 6 50 -21 41 -38 52 -41 61 -18 6 16 -126 150 -167
169 -48 21 -48 30 -1 76 24 24 44 47 44 51 0 5 -14 27 -30 50 -28 38 -29 42
-14 59 22 25 11 53 -20 47 -15 -3 -27 2 -35 14 -22 35 -14 36 38 4z m-2676
-116 c25 -15 34 -26 30 -39 -6 -22 24 -36 43 -20 15 12 134 -50 399 -209 411
-246 737 -532 951 -832 l39 -55 -30 19 c-76 48 -139 98 -258 205 -70 64 -161
139 -202 167 -41 28 -98 71 -127 95 -131 110 -279 216 -390 278 l-56 32 24 25
c31 30 24 44 -23 44 -34 0 -35 -1 -30 -30 5 -23 3 -28 -9 -23 -8 3 -19 14 -25
24 -6 13 -21 19 -42 19 -18 0 -59 9 -91 20 -33 11 -70 20 -83 20 -27 0 -29 6
-8 26 10 11 25 13 49 9 29 -6 36 -3 46 16 17 30 8 35 -130 84 -121 42 -132 52
-123 113 3 17 7 32 9 32 1 0 18 -9 37 -20z m-2820 -111 c-7 -25 -48 -53 -68
-45 -24 9 -18 19 23 42 48 28 51 28 45 3z m5417 -34 c0 -14 -4 -25 -10 -25 -5
0 -10 11 -10 25 0 14 5 25 10 25 6 0 10 -11 10 -25z m-2623 -47 c-3 -7 -5 -2
-5 12 0 14 2 19 5 13 2 -7 2 -19 0 -25z m-2708 -37 c29 -40 114 -212 149 -301
36 -90 72 -217 72 -251 0 -14 5 -30 12 -37 17 -17 112 -15 230 4 75 12 103 13
112 4 23 -23 18 -168 -9 -280 -14 -58 -37 -158 -52 -223 -31 -134 -19 -132
-104 -16 -26 35 -102 127 -169 204 -175 201 -244 295 -306 420 -61 123 -90
223 -100 347 l-6 84 68 37 c38 20 72 37 76 37 4 0 16 -13 27 -29z m5431 -33
c0 -19 -25 -19 -42 2 -27 33 -22 41 12 22 16 -9 30 -20 30 -24z m-3782 -112
c250 -82 357 -98 487 -77 39 6 79 12 89 14 41 5 101 -149 130 -329 9 -55 25
-217 36 -360 25 -321 33 -378 76 -567 51 -228 103 -554 97 -608 -6 -55 10
-190 36 -291 11 -40 26 -161 35 -268 41 -510 47 -690 51 -1545 4 -740 3 -804
-11 -735 -132 661 -276 1180 -379 1367 -20 36 -122 261 -226 501 -210 479
-209 476 -260 547 -20 28 -55 95 -78 149 -58 136 -157 333 -256 506 -46 81
-110 207 -144 280 -123 269 -199 391 -378 610 l-22 27 131 286 131 286 102 76
c99 73 185 151 185 167 0 15 31 8 168 -36z m786 -134 c36 -115 60 -253 101
-572 19 -157 58 -400 86 -540 76 -383 118 -657 144 -945 13 -143 31 -296 39
-340 48 -250 91 -1264 79 -1847 -6 -274 -6 -278 14 -278 27 0 105 84 137 149
15 28 51 122 80 209 74 216 84 241 172 404 128 238 165 297 277 447 60 79 130
176 157 216 27 40 83 103 125 141 l75 67 0 72 c0 97 -22 219 -71 400 -56 203
-56 203 -9 95 98 -224 104 -246 104 -362 1 -74 5 -109 13 -112 6 -3 33 6 60
20 26 13 50 24 52 24 2 0 -32 -37 -75 -82 -44 -46 -110 -121 -147 -168 -225
-283 -659 -1005 -718 -1195 -40 -131 -179 -476 -241 -600 -21 -40 -29 -80 -42
-207 -9 -86 -13 -164 -10 -173 4 -9 1 -125 -6 -258 -10 -195 -18 -269 -41
-382 -33 -159 -102 -410 -136 -495 -9 -23 -21 25 -22 92 -1 47 3 62 24 86 29
35 30 41 10 56 -14 10 -12 25 14 131 83 332 114 880 92 1635 -7 236 -7 388 -1
430 40 269 9 885 -61 1206 -18 84 -19 105 -9 163 13 75 7 151 -22 266 -24 98
-67 443 -68 542 0 95 -25 282 -55 415 -14 63 -21 122 -18 142 15 93 -64 612
-158 1033 -16 73 -29 137 -29 143 0 5 9 10 20 10 13 0 20 7 20 20 0 43 20 16
44 -58z m-3112 -217 c-3 -5 -14 -16 -24 -23 -18 -13 -18 -14 2 -42 l20 -28
-23 -6 c-12 -3 -34 -17 -50 -31 -21 -20 -25 -30 -17 -44 8 -16 5 -18 -27 -17
-42 1 -53 -16 -21 -32 21 -11 21 -12 -11 -9 -30 2 -35 -2 -45 -29 -6 -17 -16
-29 -23 -27 -8 3 -13 -5 -13 -21 0 -19 -7 -29 -25 -36 -15 -6 -25 -17 -25 -29
0 -22 25 -51 44 -51 21 0 38 27 31 49 -5 16 -2 18 15 14 15 -4 20 -1 20 14 0
20 47 43 88 43 27 0 28 16 5 43 -18 19 -17 20 6 7 19 -10 25 -10 32 1 4 7 5
17 2 23 -4 6 1 6 13 2 10 -4 34 -10 52 -13 24 -4 32 -2 32 10 0 8 9 17 20 20
11 3 20 3 20 1 0 -9 -114 -192 -132 -211 -16 -17 -19 -29 -13 -61 6 -37 5 -40
-13 -35 -16 4 -20 -2 -25 -48 -7 -60 -4 -69 25 -69 15 0 3 -13 -44 -49 -86
-66 -109 -104 -116 -193 l-5 -71 -111 -53 c-106 -51 -296 -119 -454 -162 l-72
-20 -29 42 c-18 26 -38 78 -52 132 -12 49 -25 96 -29 105 -5 8 -16 105 -25
215 -9 109 -21 219 -26 244 -10 43 -9 45 23 73 104 88 246 149 513 222 239 65
348 107 435 168 31 22 36 23 46 8 7 -9 10 -20 6 -26z m448 -45 c0 -11 -7 -20
-15 -20 -14 0 -35 -29 -35 -49 0 -6 7 -11 16 -11 10 0 14 -5 10 -15 -3 -9 -13
-44 -21 -78 -29 -114 -34 -125 -54 -120 -27 7 -35 -13 -13 -35 19 -19 19 -23
-51 -283 -39 -145 -72 -266 -75 -269 -8 -10 -64 67 -98 135 -84 169 -84 292
-3 446 44 83 223 272 250 264 21 -7 69 21 69 41 0 8 5 14 10 14 6 0 10 -9 10
-20z m1230 -9 c0 -14 -12 -20 -26 -14 -22 8 -17 32 6 26 11 -3 20 -9 20 -12z
m-85 -51 c24 -38 24 -41 11 -92 -8 -29 -26 -80 -39 -113 -14 -33 -69 -195
-122 -360 -53 -165 -110 -338 -127 -385 -16 -47 -40 -123 -53 -170 -13 -47
-38 -123 -55 -170 l-30 -85 5 110 c2 61 7 191 10 290 6 180 6 181 83 521 l77
341 30 -1 c39 -1 42 28 4 32 -26 3 -26 4 -17 43 6 21 13 39 17 39 3 -1 21 -13
38 -29 l33 -27 -45 -134 c-25 -74 -45 -142 -45 -151 0 -21 26 -49 46 -49 18 0
18 24 -1 40 -12 10 -13 16 -1 39 7 14 44 99 81 189 37 89 69 162 71 162 2 0
15 -18 29 -40z m-1540 -40 c3 -5 -1 -10 -10 -10 -9 0 -13 5 -10 10 3 6 8 10
10 10 2 0 7 -4 10 -10z m1588 -462 c82 -113 253 -373 336 -512 30 -49 86 -161
126 -250 96 -214 192 -405 259 -513 30 -48 62 -115 71 -148 10 -33 24 -64 31
-70 8 -5 52 -95 100 -200 434 -957 652 -1623 739 -2265 25 -183 31 -526 11
-710 -8 -85 -20 -229 -26 -320 -26 -407 -59 -604 -121 -720 l-24 -45 -3 35
c-2 19 9 82 23 140 33 131 42 248 25 320 -9 37 -14 172 -15 420 -4 467 -20
624 -90 870 -13 47 -41 159 -61 250 -20 91 -58 233 -85 315 -26 83 -73 233
-103 335 -30 102 -78 248 -106 325 -61 164 -188 433 -254 534 -25 40 -55 99
-67 133 -11 33 -34 88 -51 122 -77 155 -261 476 -338 591 -26 39 -50 85 -53
102 -7 33 -61 118 -390 601 l-186 274 76 221 c90 263 91 267 97 267 3 0 38
-46 79 -102z m-1600 -222 c39 -70 47 -90 36 -97 -23 -14 -61 -10 -82 8 -18 17
-19 17 -32 -1 -11 -15 -21 -17 -56 -11 l-42 7 6 49 c3 26 13 59 22 73 18 28
75 67 89 63 5 -2 32 -43 59 -91z m4263 -494 c18 -31 89 -158 158 -282 l127
-225 22 -167 c13 -93 20 -168 17 -168 -6 0 -51 72 -78 125 -34 68 -63 175 -81
300 l-17 120 -45 0 -44 0 1 -140 c1 -162 22 -275 83 -461 l39 -119 -28 34
c-115 136 -205 494 -217 864 -6 169 -5 177 13 177 13 0 29 -19 50 -58z m1494
-141 c0 -5 -7 -12 -16 -15 -14 -5 -15 -4 -4 9 14 17 20 19 20 6z m475 -61 c15
-30 15 -32 -14 -68 -16 -21 -66 -73 -111 -116 -63 -60 -84 -75 -91 -65 -17 28
-10 39 21 33 25 -6 31 -3 40 20 5 14 14 26 19 26 13 0 31 65 31 113 0 25 -4
37 -14 37 -25 0 -46 -12 -46 -25 0 -16 -25 -26 -44 -19 -17 7 -50 -39 -51 -72
-2 -25 -70 -107 -205 -248 -161 -168 -429 -317 -547 -303 -90 10 -83 15 219
166 130 65 266 139 301 164 102 73 188 180 164 204 -3 3 -43 -11 -89 -30 -181
-77 -488 -190 -496 -183 -3 3 1 6 10 6 8 0 25 12 39 26 58 62 278 177 485 252
96 35 335 110 356 112 4 0 15 -14 23 -30z m-1650 -81 c42 -83 65 -191 70 -329
2 -69 2 -114 -1 -100 -3 14 -25 100 -49 191 -42 155 -66 289 -52 289 4 0 18
-23 32 -51z m1005 -13 c0 -3 -4 -8 -10 -11 -5 -3 -10 -1 -10 4 0 6 5 11 10 11
6 0 10 -2 10 -4z m-1431 -144 c6 -21 15 -73 21 -117 6 -44 13 -96 15 -115 4
-27 3 -31 -5 -18 -14 22 -59 288 -49 288 5 0 13 -17 18 -38z m1767 -93 c-34
-27 -39 -24 -21 12 13 25 19 28 31 19 12 -10 10 -15 -10 -31z m-256 1 c-57
-45 -416 -217 -428 -205 -6 6 -10 4 51 34 51 26 59 43 25 58 -19 8 -14 12 48
37 62 25 294 94 319 95 6 0 -1 -8 -15 -19z m-418 -148 c-11 -11 -23 -18 -27
-14 -3 3 4 14 17 23 29 23 35 16 10 -9z m-72 -52 c-6 -11 -8 -25 -5 -30 3 -5
-9 -14 -27 -20 -40 -15 -88 -74 -88 -109 0 -19 -10 -33 -37 -51 -20 -14 -62
-45 -92 -70 l-56 -45 84 100 c74 89 220 245 229 245 1 0 -2 -9 -8 -20z m537
-46 c-16 -9 -31 -13 -34 -10 -3 3 5 10 18 15 37 15 47 12 16 -5z m-2437 -4043
c0 -5 -11 -16 -25 -25 -22 -15 -25 -15 -25 -1 0 12 21 28 48 34 1 1 2 -3 2 -8z"/>
<path d="M5851 12092 c-5 -9 -11 -57 -13 -105 -1 -48 -6 -87 -9 -87 -4 0 -12
-14 -19 -31 -12 -28 -11 -33 11 -54 35 -35 53 -20 41 33 -8 36 -7 43 10 54 15
10 21 29 25 80 8 93 -20 159 -46 110z"/>
<path d="M5696 12041 c-3 -5 -2 -21 3 -35 6 -14 7 -46 2 -77 -5 -28 -9 -91
-10 -140 -2 -84 -1 -89 23 -104 14 -9 30 -14 36 -10 15 9 12 120 -4 158 -12
30 -11 35 5 56 21 25 25 66 9 76 -6 4 -9 23 -8 43 3 33 0 37 -24 40 -14 2 -29
-1 -32 -7z"/>
<path d="M5987 12008 c-6 -22 8 -58 22 -58 21 0 32 28 20 54 -15 32 -35 34
-42 4z"/>
<path d="M5822 11538 c-7 -7 -12 -16 -12 -22 0 -5 -9 -29 -21 -53 -16 -34 -19
-52 -13 -81 4 -20 7 -42 6 -48 -1 -6 5 -17 13 -24 24 -20 47 4 34 37 -7 18 -6
30 1 37 5 5 10 23 10 38 0 17 7 31 16 35 11 4 13 13 9 37 -9 42 -27 60 -43 44z"/>
<path d="M7174 11665 c-4 -9 -4 -27 -2 -40 3 -14 1 -25 -3 -25 -15 0 -10 -67
4 -73 28 -10 40 9 29 42 -9 25 -8 31 3 31 23 0 27 18 10 50 -17 33 -32 38 -41
15z"/>
<path d="M7316 11642 c-3 -5 -8 -50 -12 -100 -6 -81 -5 -95 11 -112 22 -25 42
-26 48 -2 3 9 8 58 12 109 6 85 5 92 -14 102 -24 13 -38 14 -45 3z"/>
<path d="M7137 11484 c-4 -4 -7 -58 -7 -120 0 -116 9 -144 46 -144 14 0 19 21
8 32 -3 3 -6 51 -7 107 -2 76 -6 104 -18 116 -8 8 -18 12 -22 9z"/>
<path d="M7290 11375 c-12 -37 -7 -55 15 -55 20 0 38 38 31 66 -9 35 -33 29
-46 -11z"/>
<path d="M7260 11191 c-18 -45 -2 -63 34 -36 13 10 17 21 12 39 -9 35 -31 33
-46 -3z"/>
<path d="M7230 11074 c-6 -14 -13 -50 -16 -81 -6 -50 -5 -55 12 -51 10 2 29
22 41 45 18 35 20 48 12 77 -12 42 -35 47 -49 10z"/>
<path d="M7059 10769 c-8 -15 -8 -24 0 -32 15 -15 46 16 38 37 -9 22 -24 20
-38 -5z"/>
<path d="M7247 10764 c-11 -11 -8 -49 5 -62 17 -17 48 -15 48 2 0 20 -43 69
-53 60z"/>
<path d="M7086 10721 c-3 -4 1 -17 9 -27 8 -10 15 -29 15 -40 0 -22 24 -39 41
-28 16 9 10 50 -12 78 -20 26 -43 34 -53 17z"/>
<path d="M4297 11673 c-4 -3 -7 -19 -7 -34 0 -29 22 -50 68 -64 33 -10 29 22
-9 68 -31 37 -40 43 -52 30z"/>
<path d="M4147 11633 c-16 -16 -1 -35 101 -125 73 -65 110 -106 117 -128 12
-38 58 -71 76 -53 16 16 -89 171 -150 222 -58 47 -136 93 -144 84z"/>
<path d="M4400 11556 c0 -7 18 -30 39 -49 22 -20 42 -49 46 -66 5 -24 12 -31
31 -31 14 0 24 6 24 14 0 21 -51 109 -74 128 -25 21 -66 24 -66 4z"/>
<path d="M4540 11168 c0 -35 105 -130 170 -154 55 -21 84 -21 77 0 -5 16 -217
176 -233 176 -8 0 -14 -10 -14 -22z"/>
<path d="M4690 10795 c-17 -21 -8 -50 18 -53 27 -4 38 19 22 47 -13 25 -23 26
-40 6z"/>
<path d="M8176 11054 c-11 -30 -6 -91 9 -104 25 -21 47 -4 41 30 -3 16 -9 44
-12 60 -6 32 -28 40 -38 14z"/>
<path d="M8257 10994 c-12 -12 -8 -51 6 -63 21 -17 55 24 41 47 -12 19 -36 27
-47 16z"/>
<path d="M7744 10893 c-3 -10 -10 -28 -15 -41 -26 -64 4 -82 47 -27 20 26 21
34 11 54 -15 31 -35 38 -43 14z"/>
<path d="M7706 10773 c-3 -4 -6 -51 -6 -105 0 -79 3 -98 15 -98 32 0 53 92 36
157 -10 38 -31 59 -45 46z"/>
<path d="M8659 10636 c-8 -9 -27 -33 -44 -53 -16 -21 -43 -45 -60 -53 -16 -8
-39 -29 -50 -47 -13 -21 -26 -30 -37 -27 -9 3 -53 -13 -98 -36 -60 -30 -80
-45 -78 -58 5 -27 54 -26 114 3 30 15 62 38 71 51 8 13 25 24 38 24 23 0 75
41 75 60 0 5 7 10 16 10 24 0 116 96 112 117 -4 23 -41 29 -59 9z"/>
<path d="M8460 10570 c-19 -16 -41 -29 -48 -30 -7 0 -42 -21 -78 -46 -61 -43
-81 -74 -49 -74 31 0 131 44 150 66 11 12 37 30 58 38 36 15 43 28 31 60 -9
23 -25 20 -64 -14z"/>
<path d="M9481 10199 c-14 -42 -15 -41 12 -37 17 2 23 11 25 36 4 43 -22 44
-37 1z"/>
<path d="M9553 10143 c-3 -10 -20 -30 -36 -45 l-30 -28 26 -26 c37 -37 57 -26
57 31 0 25 3 44 8 44 22 -4 32 3 32 21 0 26 -48 28 -57 3z"/>
<path d="M9322 9528 c-7 -7 -12 -20 -12 -30 0 -10 -4 -18 -10 -18 -19 0 -10
-39 12 -54 25 -18 42 -11 35 15 -3 10 -1 22 4 25 14 8 11 50 -4 63 -10 8 -17
7 -25 -1z"/>
<path d="M9581 9443 c-20 -40 -114 -143 -130 -143 -10 0 -21 -24 -21 -46 0 -9
11 -14 30 -14 19 0 30 5 30 14 0 8 14 23 30 33 17 9 32 25 35 34 3 9 21 33 40
52 27 27 35 45 35 72 0 47 -24 46 -49 -2z"/>
<path d="M9145 9440 c-3 -11 -10 -20 -15 -20 -11 0 -29 -60 -22 -77 9 -26 30
-12 51 32 12 25 21 54 21 65 0 26 -27 26 -35 0z"/>
<path d="M9245 9390 c-19 -36 -19 -60 -2 -60 22 0 47 34 47 63 0 37 -25 35
-45 -3z"/>
<path d="M8930 9371 c-5 -11 -10 -67 -10 -125 0 -99 1 -106 20 -106 29 0 53
54 46 99 -4 20 -7 50 -6 68 0 38 -16 83 -29 83 -6 0 -15 -9 -21 -19z"/>
<path d="M9358 9239 c-19 -11 -25 -59 -8 -59 18 0 60 32 60 45 0 7 -7 16 -16
19 -19 7 -15 8 -36 -5z"/>
<path d="M8961 9093 c-51 -62 -29 -81 37 -32 46 33 52 62 16 67 -15 2 -31 -9
-53 -35z"/>
<path d="M8818 8927 c-74 -79 -123 -187 -84 -187 17 0 166 183 166 203 0 8 -9
17 -21 20 -16 4 -31 -5 -61 -36z"/>
<path d="M5667 10134 c-14 -14 -7 -62 10 -68 25 -10 38 9 27 41 -9 27 -25 39
-37 27z"/>
<path d="M5204 10047 c-7 -20 13 -67 30 -67 20 0 40 61 24 72 -20 12 -48 9
-54 -5z"/>
<path d="M5336 9978 c-23 -35 -5 -88 31 -88 24 0 24 2 18 43 -4 23 -13 48 -20
56 -11 11 -16 9 -29 -11z"/>
<path d="M5956 9948 c-18 -25 -7 -44 18 -35 17 7 22 42 7 52 -5 3 -17 -5 -25
-17z"/>
<path d="M5501 9926 c-18 -22 -10 -100 11 -104 11 -2 20 8 28 33 10 30 9 40
-4 60 -19 29 -20 29 -35 11z"/>
<path d="M4690 9889 c-14 -25 -6 -51 14 -43 18 7 27 29 20 49 -8 21 -21 19
-34 -6z"/>
<path d="M5353 9848 c-17 -27 -31 -112 -22 -136 5 -13 9 -42 9 -66 0 -23 5
-47 11 -53 8 -8 8 -13 0 -17 -16 -10 -14 -79 3 -101 12 -16 16 -17 30 -6 18
15 21 114 4 169 -15 51 -16 162 -1 162 14 0 17 19 7 44 -7 19 -30 21 -41 4z"/>
<path d="M9320 9875 c0 -18 29 -31 91 -40 41 -6 46 -5 56 18 7 14 9 28 6 31
-4 3 -39 6 -80 6 -59 0 -73 -3 -73 -15z"/>
<path d="M9356 9811 c-14 -21 6 -42 38 -39 23 2 31 8 31 23 0 15 -8 21 -32 23
-17 2 -34 -1 -37 -7z"/>
<path d="M7516 9925 c-9 -13 -16 -31 -16 -39 0 -15 50 -56 68 -56 5 0 17 21
27 47 17 44 17 47 0 60 -29 20 -61 16 -79 -12z"/>
<path d="M7780 9312 c0 -10 5 -23 12 -30 16 -16 48 -15 48 1 0 16 -32 47 -48
47 -7 0 -12 -8 -12 -18z"/>
<path d="M6155 9206 c-37 -52 -73 -97 -80 -99 -6 -3 -18 -26 -25 -51 -7 -25
-19 -51 -26 -57 -8 -6 -14 -19 -14 -29 0 -10 -6 -23 -13 -29 -8 -6 -22 -39
-32 -73 -11 -35 -22 -65 -26 -68 -14 -11 -30 -53 -25 -66 8 -21 25 -17 37 9 6
13 20 27 32 32 18 8 24 22 31 74 5 40 15 70 27 82 10 10 19 24 19 30 0 6 9 22
20 36 11 14 20 38 20 54 0 15 5 31 10 34 25 16 179 198 174 206 -3 5 -18 9
-34 9 -25 0 -37 -13 -95 -94z"/>
<path d="M7010 9226 c-58 -85 -31 -103 43 -28 55 55 59 72 17 72 -23 0 -35 -9
-60 -44z"/>
<path d="M6805 9010 c-16 -16 -35 -30 -42 -30 -8 0 -16 -7 -19 -15 -4 -8 -14
-15 -24 -15 -29 0 -81 -50 -78 -74 4 -30 48 -35 55 -7 3 12 10 21 15 21 5 0
26 11 46 25 20 14 43 25 52 25 8 0 26 12 39 26 21 22 23 27 11 49 -17 32 -20
31 -55 -5z"/>
<path d="M4358 9134 c-16 -16 -6 -26 48 -50 44 -19 59 -22 70 -13 15 12 19 45
7 52 -16 10 -118 18 -125 11z"/>
<path d="M3612 8718 c-27 -27 -13 -45 50 -66 68 -23 88 -18 88 23 0 20 -8 25
-48 34 -26 5 -54 12 -62 16 -9 3 -21 0 -28 -7z"/>
<path d="M3864 8595 c-8 -21 14 -45 61 -66 28 -13 43 -15 52 -7 24 19 14 34
-42 61 -65 32 -64 31 -71 12z"/>
<path d="M4313 8583 c-8 -21 18 -43 63 -53 82 -19 105 -6 67 38 -23 26 -122
37 -130 15z"/>
<path d="M4007 8514 c-14 -15 -6 -24 43 -49 82 -41 210 -33 182 12 -14 22
-208 53 -225 37z"/>
<path d="M9680 8895 c-11 -12 -20 -29 -20 -39 0 -16 6 -18 35 -13 20 3 48 12
63 19 23 12 32 11 62 -4 42 -20 56 -22 66 -6 10 15 -32 48 -62 48 -12 0 -26 5
-29 10 -12 19 -93 8 -115 -15z"/>
<path d="M9350 8875 c-17 -21 -8 -50 18 -53 27 -4 38 19 22 47 -13 25 -23 26
-40 6z"/>
<path d="M9130 8565 c-7 -8 -27 -15 -46 -15 -36 0 -47 -9 -34 -29 14 -24 150
-16 150 9 0 10 -40 50 -51 50 -3 0 -12 -7 -19 -15z"/>
<path d="M9014 8104 c3 -9 6 -18 6 -20 0 -10 39 -3 49 9 14 18 4 27 -32 27
-22 0 -28 -4 -23 -16z"/>
<path d="M9370 8087 c0 -8 9 -22 20 -32 11 -10 20 -27 20 -37 0 -13 13 -25 40
-36 22 -9 40 -22 40 -28 0 -6 9 -19 20 -29 16 -14 23 -16 32 -7 9 9 7 16 -7
32 -10 11 -24 20 -30 20 -7 0 -16 8 -19 18 -25 68 -116 146 -116 99z"/>
<path d="M2676 8212 c-8 -13 23 -52 40 -52 17 0 19 31 2 48 -14 14 -35 16 -42
4z"/>
<path d="M6545 7709 c-8 -12 23 -49 41 -49 23 0 25 19 4 40 -22 22 -36 25 -45
9z"/>
<path d="M6410 7645 c0 -32 26 -68 63 -87 28 -14 42 -17 50 -9 8 8 -3 25 -38
61 -50 50 -75 62 -75 35z"/>
<path d="M6684 7569 c-3 -6 -3 -14 2 -18 5 -3 10 -25 11 -49 5 -82 45 -112 51
-37 2 27 -3 47 -17 66 -12 16 -21 33 -21 39 0 13 -17 13 -26 -1z"/>
<path d="M8817 7963 c-9 -8 2 -73 14 -89 5 -6 12 -28 17 -49 8 -42 50 -82 76
-72 13 5 7 24 -34 109 -48 101 -59 116 -73 101z"/>
<path d="M9077 7873 c-11 -10 -8 -18 13 -41 23 -24 60 -30 60 -9 0 16 -41 57
-56 57 -6 0 -14 -3 -17 -7z"/>
<path d="M9154 7799 c-7 -12 32 -48 53 -49 24 0 26 24 3 42 -25 21 -46 23 -56
7z"/>
<path d="M8936 7712 c-2 -4 -1 -14 5 -22 5 -8 9 -32 9 -52 0 -35 2 -38 30 -38
38 0 39 18 5 77 -25 42 -39 52 -49 35z"/>
<path d="M9264 7536 c-10 -25 31 -65 48 -48 10 10 7 18 -14 39 -25 24 -28 25
-34 9z"/>
<path d="M9305 7470 c-6 -10 29 -50 44 -50 20 0 22 22 5 41 -19 21 -39 25 -49
9z"/>
<path d="M4625 7208 c-17 -41 -5 -57 29 -38 32 17 39 36 20 55 -23 22 -33 19
-49 -17z"/>
<path d="M4725 7201 c-3 -6 -3 -15 0 -21 3 -5 1 -10 -4 -10 -14 0 -121 -213
-121 -240 0 -23 45 -49 59 -34 5 5 25 66 46 135 29 97 42 127 59 135 30 13 27
38 -6 42 -14 2 -29 -2 -33 -7z"/>
<path d="M5447 7123 c-42 -67 -59 -104 -52 -121 9 -23 70 41 91 94 27 70 -1
88 -39 27z"/>
<path d="M4577 6834 c-4 -4 -7 -23 -7 -41 0 -30 3 -34 23 -31 17 2 21 9 19 28
-3 28 -24 54 -35 44z"/>
<path d="M3785 7429 c-8 -12 23 -49 41 -49 23 0 25 19 4 40 -22 22 -36 25 -45
9z"/>
<path d="M3664 7356 c-10 -25 15 -55 69 -82 29 -15 60 -33 69 -41 10 -9 24
-13 33 -9 14 5 12 11 -11 41 -14 19 -34 35 -44 35 -10 0 -37 16 -60 35 -48 40
-49 40 -56 21z"/>
<path d="M3868 7315 c-10 -23 -10 -29 5 -40 9 -7 17 -22 17 -34 0 -14 6 -21
20 -21 29 0 36 42 13 82 -24 42 -40 45 -55 13z"/>
<path d="M2490 7393 c-8 -3 -31 -12 -50 -21 -19 -8 -39 -14 -44 -13 -17 4 -74
-20 -79 -33 -3 -7 -1 -19 4 -27 7 -12 19 -10 73 9 41 14 88 22 130 22 36 0 67
4 70 8 2 4 39 4 81 -2 84 -10 109 -1 89 32 -14 21 -183 39 -195 21 -5 -8 -12
-8 -27 0 -22 12 -29 12 -52 4z"/>
<path d="M3105 7310 c-16 -26 35 -66 107 -85 39 -11 49 -11 59 1 18 22 6 35
-65 65 -73 31 -91 35 -101 19z"/>
<path d="M3126 7151 c-7 -12 12 -27 45 -35 29 -6 56 15 44 34 -8 12 -82 14
-89 1z"/>
<path d="M3358 6985 c-9 -19 -9 -28 0 -37 16 -16 42 8 42 38 0 32 -27 31 -42
-1z"/>
<path d="M2500 6722 c0 -23 44 -46 95 -50 105 -9 110 24 7 46 -63 14 -102 15
-102 4z"/>
<path d="M7275 7179 c-9 -14 17 -37 54 -46 28 -7 47 16 28 34 -19 19 -73 27
-82 12z"/>
<path d="M3306 6086 c-17 -19 -39 -48 -49 -65 -17 -29 -17 -32 -2 -37 12 -5
35 11 76 52 54 53 58 60 42 71 -25 19 -32 17 -67 -21z"/>
<path d="M3156 5903 c-66 -88 -75 -106 -56 -118 20 -12 145 144 145 181 0 39
-26 21 -89 -63z"/>
<path d="M3006 5944 c-3 -9 -6 -24 -6 -35 0 -13 -7 -19 -24 -19 -13 0 -27 -7
-30 -16 -9 -25 -7 -54 5 -54 18 0 49 20 49 32 0 6 14 23 30 37 23 20 29 31 24
49 -7 25 -39 30 -48 6z"/>
<path d="M3924 6579 c-22 -28 -24 -49 -4 -59 47 -25 68 6 32 50 -15 18 -20 20
-28 9z"/>
<path d="M4935 6133 c-3 -21 -10 -57 -15 -81 -6 -23 -10 -61 -10 -83 0 -36 2
-40 23 -37 16 2 23 10 25 33 1 17 10 53 19 82 19 58 10 115 -19 121 -13 2 -18
-6 -23 -35z"/>
<path d="M7884 5316 c-11 -29 1 -61 24 -64 17 -3 22 2 22 18 0 45 -34 78 -46
46z"/>
</g>
</svg>
